<svg id="Слой_1" data-name="Слой 1" xmlns="http://www.w3.org/2000/svg" xmlns:xlink="http://www.w3.org/1999/xlink" viewBox="0 0 595.3 580.4"><defs><style>.cls-1{fill:url(#Безымянный_градиент);}.cls-2{fill:#d8a1ff;}</style><radialGradient id="Безымянный_градиент" cx="-183.69" cy="382.48" r="0.76" gradientTransform="matrix(545.67, 0, 0, -528.31, 100439.3, 202211.36)" gradientUnits="userSpaceOnUse"><stop offset="0" stop-color="#442f55" stop-opacity="0.98"/><stop offset="1" stop-color="#12002c"/></radialGradient></defs><path class="cls-1" d="M24.8,24.8H570.5V555.6H24.8Z"/><path class="cls-2" d="M24.8,24.8H570.5V555.6H24.8ZM0,580.4H595.3V0H0ZM421.2,279.8c12.6,0,17.1,0,18.3-.5s.5-3,.5-4.2c0-13.4-6.4-38.2-32.2-38.2-23.8,0-34,20.8-36.5,42.9Zm-50.4,34c.5,33.4,16.4,56,54.1,56,14.6,0,27.3-2,40.4-7.7,1.7-.7,3-.5,3,1.8v31a5.2,5.2,0,0,1-2.5,4.9c-13.1,6.5-29.5,9.5-49.8,9.5-65.5,0-90.1-48.4-90.1-102.2,0-58.6,30.3-106.4,83.6-106.4s72.9,45.4,72.9,82.3c0,11.9-.7,21.6-2,26.3a3.6,3.6,0,0,1-3.2,3.2c-4.9.8-19.6,1.8-41.4,1.8h-65ZM237.9,288.5c-7-27.6-23.8-87.6-30-116.6h-.5c-5.3,29-18.9,78.1-29.1,116.6Zm-69.7,40.1-19.6,74.2c-.5,2-1.3,2.7-3.7,2.7H108.4c-2.5,0-3-.7-2.5-3.7l70.5-246.3c1.2-4.4,1.9-7.9,2.4-20.3,0-1.8.8-2.5,2-2.5h52.1c1.7,0,2.5.5,3,2.5l78.9,267.1c.4,2,0,3.2-2,3.2h-41c-1.9,0-3.2-.7-3.7-2.4l-20.3-74.5Z"/></svg>