<svg id="Слой_1" data-name="Слой 1" xmlns="http://www.w3.org/2000/svg" viewBox="0 0 68 95.2"><defs><style>.cls-1{fill:#0051cd;}</style></defs><path class="cls-1" d="M59.2,1.6l11,6.3L26.9,32.8,16,26.5Z" transform="translate(-15.2 -1.6)"/><path class="cls-1" d="M70.7,9.2l-43,24.7V46.5l43-24.8Z" transform="translate(-15.2 -1.6)"/><path class="cls-1" d="M53.4,33.6,27.7,48.4V60.9L53.4,46.1Z" transform="translate(-15.2 -1.6)"/><path class="cls-1" d="M43.6,53.4,27.7,62.5V75l15.9-9.1Z" transform="translate(-15.2 -1.6)"/><path class="cls-1" d="M15.2,27.7l11,6.3V46.5l-11-6.3Z" transform="translate(-15.2 -1.6)"/><path class="cls-1" d="M15.3,42l10.9,6.3V60.8L15.3,54.5Z" transform="translate(-15.2 -1.6)"/><path class="cls-1" d="M15.3,56.2l10.9,6.3V75.9L15.3,69.6Z" transform="translate(-15.2 -1.6)"/><path class="cls-1" d="M39.6,96.8l-11-6.3L71.4,65.9l11,6.3Z" transform="translate(-15.2 -1.6)"/><path class="cls-1" d="M27.8,89.4,70.7,64.7V52.2L27.8,76.9Z" transform="translate(-15.2 -1.6)"/><path class="cls-1" d="M45,65,70.6,50.3V37.8L45,52.5Z" transform="translate(-15.2 -1.6)"/><path class="cls-1" d="M54.8,45.3l15.9-9.2V23.6L54.8,32.8Z" transform="translate(-15.2 -1.6)"/><path class="cls-1" d="M83.2,71.1,72.1,64.7V52.2l11.1,6.4Z" transform="translate(-15.2 -1.6)"/><path class="cls-1" d="M83.1,56.7,72.2,50.4V37.9l10.9,6.3Z" transform="translate(-15.2 -1.6)"/><path class="cls-1" d="M83.1,42.4,72.2,36.1V23l10.9,6.3Z" transform="translate(-15.2 -1.6)"/></svg>