<svg id="Слой_1" data-name="Слой 1" xmlns="http://www.w3.org/2000/svg" xmlns:xlink="http://www.w3.org/1999/xlink" viewBox="0 0 595.3 580.4"><defs><style>.cls-1{fill:url(#Безымянный_градиент);}.cls-2{fill:#ff7f18;}</style><radialGradient id="Безымянный_градиент" cx="-183.69" cy="382.48" r="0.76" gradientTransform="matrix(545.67, 0, 0, -528.31, 100439.3, 202211.36)" gradientUnits="userSpaceOnUse"><stop offset="0" stop-color="#423325" stop-opacity="0.98"/><stop offset="1" stop-color="#1c0a00"/></radialGradient></defs><path class="cls-1" d="M24.8,24.8H570.5V555.6H24.8Z"/><path class="cls-2" d="M24.8,24.8H570.5V555.6H24.8ZM0,580.4H595.3V0H0ZM389.9,206.9c0-2,.8-3,3-3h38.9c2,0,3,.7,3,3V402.6c0,1.9-.5,2.9-3,2.9H393.4c-2.5,0-3.2-1.2-3.2-3.2V206.9Zm-2.7-56.3c0-15.9,11.1-25.3,25.3-25.3s25.3,10.1,25.3,25.3-10.7,25.3-25.8,25.3S387.2,166.9,387.2,150.6ZM275.6,288.5c-7-27.6-23.3-87.6-29.6-116.6h-.4c-5.3,29-18.4,78.1-28.8,116.6Zm-69,40.1L187,403.1c-.5,1.9-1.2,2.4-3.7,2.4H146.8c-2.4,0-2.9-.7-2.4-3.7l70.4-246.5c1.2-4.5,2-8.5,2.5-20.6,0-1.8.7-2.5,2-2.5h52c1.8,0,2.5.5,3,2.5l78.9,267.6c.5,2,0,3.2-2,3.2H310c-1.9,0-3.2-.5-3.7-2.2L286,328.6Z"/></svg>