<svg id="Слой_1" data-name="Слой 1" xmlns="http://www.w3.org/2000/svg" viewBox="0 0 2500 1508.2"><path d="M589.9,393.8h471.5v37.4H633.1V713.3h402.8v37.5H633.1v309.7h433.2v37.4H589.9Zm513.8,0h50.1l222,309.6,226.9-309.6L1911.3.4,1404.3,736l261.3,361.9h-52.1L1375.8,768.5l-238.7,329.4H1086L1349.2,736Zm580.5,37.4V393.8h537.4v37.4H1974v666.7h-43.2V431.2ZM0,393.8H54L799,1508.6,491.2,1097.9,45.2,447l-2,650.9H0Zm2217.2,655.3a15.2,15.2,0,0,1-15.4-15.6c0-8.9,6.6-15.7,15.4-15.7s15.5,6.8,15.5,15.7A15.2,15.2,0,0,1,2217.2,1049.1Zm42.5-41.2h23.1c.3,12.5,9.5,20.9,22.9,20.9,15.1,0,23.6-9,23.6-26V895.5h23.5v107.4c0,30.6-17.6,48.1-46.9,48.1-27.4,0-46.2-17-46.2-43.1Zm123.9-1.4H2407c2,14.4,16,23.6,36.3,23.6s32.8-9.8,32.8-23.3c0-11.6-8.8-18.5-28.9-23.2l-19.5-4.8c-27.5-6.4-40-19.7-40-42,0-27,22.1-45,55.2-45,30.8,0,53.3,18,54.7,43.6h-22.9c-2.2-14-14.4-22.8-32.1-22.8s-31,9-31,22.6c0,10.9,8,17.1,27.7,21.7l16.8,4.1c31.1,7.3,43.9,19.9,43.9,42.8,0,29-22.5,47.2-58.4,47.2-33.7,0-56.3-17.3-58-44.5Z" transform="translate(0 -0.4)"/></svg>