<svg id="Слой_1" data-name="Слой 1" xmlns="http://www.w3.org/2000/svg" xmlns:xlink="http://www.w3.org/1999/xlink" viewBox="0 0 595.3 580.4"><defs><style>.cls-1{fill:url(#Безымянный_градиент_3);}.cls-2{fill:url(#Безымянный_градиент_4);}.cls-3{fill:url(#Безымянный_градиент_4-2);}.cls-4{fill:url(#Безымянный_градиент_4-3);}</style><linearGradient id="Безымянный_градиент_3" x1="-184.02" y1="382.2" x2="-183.02" y2="382.2" gradientTransform="matrix(545.67, 0, 0, -528.31, 100439.3, 202211.36)" gradientUnits="userSpaceOnUse"><stop offset="0" stop-color="#090058"/><stop offset="1" stop-color="#070033"/></linearGradient><linearGradient id="Безымянный_градиент_4" y1="290.2" x2="595.28" y2="290.2" gradientUnits="userSpaceOnUse"><stop offset="0" stop-color="#a0cbff"/><stop offset="0.39" stop-color="#a0cbfe"/><stop offset="0.58" stop-color="#8ec2fc"/><stop offset="0.78" stop-color="#83bcfb"/><stop offset="1" stop-color="#7fbafb"/></linearGradient><linearGradient id="Безымянный_градиент_4-2" x1="-982.91" y1="-620.28" x2="-731.82" y2="-89.71" gradientTransform="translate(1045.9 573.3)" xlink:href="#Безымянный_градиент_4"/><linearGradient id="Безымянный_градиент_4-3" x1="-839.89" y1="-689.56" x2="-587.8" y2="-156.89" gradientTransform="translate(1045.9 573.3)" xlink:href="#Безымянный_градиент_4"/></defs><path class="cls-1" d="M24.8,24.8H570.5V555.6H24.8Z"/><path class="cls-2" d="M24.8,24.8H570.5V555.6H24.8ZM0,580.4H595.3V0H0Z"/><path class="cls-3" d="M140.2,139.9s41.4-1,75.5-1,59,8.1,75.5,22.3,26.4,36.4,26.4,62.5-8,47.5-22.7,62.5c-19.1,19.4-41.3,30.9-79.2,32.5-10.4.4-20.1.5-20.1.5v84.9H140.2V139.9Zm55.4,132.3c6,.6,9.8.3,18.7.2,29.7-.4,48-18.4,48-45.7,0-24.5-15.1-44.7-43.6-45.7-11.4-.4-23.1,0-23.1,0Z"/><path class="cls-4" d="M338.8,345c11.1,6.8,37.4,17.1,55.4,17.1s25.9-6.5,25.9-16.5-6-20.7-28.7-28.4c-40.3-13.7-55.8-30.1-55.4-53.1,0-37.1,31.1-64.9,79.3-64.9,22.7,0,40.9,7.4,52.8,13.5v44.5c-8.8-4.8-34.1-15.6-50.8-15.6-14.8,0-23.1,6-23.1,16.1s7.5,14.1,31.5,22.6c37,12.9,52.6,31.8,53,60.8,0,36.7-28.3,65.9-84.5,64.1-19.3-.6-40.7-8.2-55.5-16.3V345Z"/></svg>