<svg id="Слой_1" data-name="Слой 1" xmlns="http://www.w3.org/2000/svg" xmlns:xlink="http://www.w3.org/1999/xlink" viewBox="0 0 707.4 924.5"><defs><style>.cls-1{fill:url(#Безымянный_градиент);}.cls-2{fill:url(#Безымянный_градиент_2);}.cls-3{fill:url(#Безымянный_градиент_3);}.cls-4{fill:url(#Безымянный_градиент_4);}.cls-5{fill:url(#Безымянный_градиент_5);}.cls-6{opacity:0.3;isolation:isolate;fill:url(#Безымянный_градиент_6);}</style><linearGradient id="Безымянный_градиент" x1="405.75" y1="455.9" x2="655.22" y2="397.58" gradientTransform="matrix(1, 0, 0, -1, 0, 997.89)" gradientUnits="userSpaceOnUse"><stop offset="0" stop-color="#ff6533"/><stop offset="0.16" stop-color="#ff5633"/><stop offset="0.43" stop-color="#ff4333"/><stop offset="0.71" stop-color="#ff3733"/><stop offset="1" stop-color="#f33"/></linearGradient><linearGradient id="Безымянный_градиент_2" x1="366.71" y1="538.58" x2="813.81" y2="191.92" gradientTransform="matrix(1, 0, 0, -1, 0, 997.89)" gradientUnits="userSpaceOnUse"><stop offset="0" stop-color="#bf3338"/><stop offset="1" stop-color="#f33"/></linearGradient><linearGradient id="Безымянный_градиент_3" x1="381.32" y1="470.34" x2="446.12" y2="402.3" xlink:href="#Безымянный_градиент"/><linearGradient id="Безымянный_градиент_4" x1="499.14" y1="353.21" x2="479.71" y2="631.84" xlink:href="#Безымянный_градиент"/><linearGradient id="Безымянный_градиент_5" x1="414.92" y1="475.11" x2="506.96" y2="412.52" gradientTransform="matrix(1, 0, 0, -1, 0, 997.89)" gradientUnits="userSpaceOnUse"><stop offset="0" stop-color="#fbb040"/><stop offset="1" stop-color="#fb8840"/></linearGradient><linearGradient id="Безымянный_градиент_6" x1="509.22" y1="828.99" x2="415.27" y2="-204.53" gradientTransform="matrix(1, 0, 0, -1, 0, 997.89)" gradientUnits="userSpaceOnUse"><stop offset="0" stop-color="#fff"/><stop offset="1" stop-color="#fff" stop-opacity="0"/></linearGradient></defs><path class="cls-1" d="M853.7,354a301.9,301.9,0,0,0-39.3-149.7C747.8,135.8,603,119.9,567,204c-36.9,86.1,62,182,105.3,174.4,55.1-9.7-9.7-136-9.7-136,84.2,158.7,64.8,110.1-87.5,255.9S267.3,951.7,244.6,964.7a17.9,17.9,0,0,1-3.1,1.6H838.8a14.3,14.3,0,0,0,12.7-20.6L695.3,636.6a14.1,14.1,0,0,1,5.5-18.6C792.2,565.5,853.7,467,853.7,354Z" transform="translate(-146.3 -49.6)"/><path class="cls-2" d="M853.7,354a301.9,301.9,0,0,0-39.3-149.7C747.8,135.8,603,119.9,567,204c-36.9,86.1,62,182,105.3,174.4,55.1-9.7-9.7-136-9.7-136,84.2,158.7,64.8,110.1-87.5,255.9S267.3,951.7,244.6,964.7a17.9,17.9,0,0,1-3.1,1.6H838.8a14.3,14.3,0,0,0,12.7-20.6L695.3,636.6a14.1,14.1,0,0,1,5.5-18.6C792.2,565.5,853.7,467,853.7,354Z" transform="translate(-146.3 -49.6)"/><path class="cls-3" d="M244.6,964.7c22.7-13,178.2-320.8,330.5-466.6s171.7-97.2,87.5-255.9c0,0-322.4,452-439,675.5" transform="translate(-146.3 -49.6)"/><path class="cls-4" d="M290,559.7C507.7,159.4,536.2,119.1,649.6,119.1c59.6,0,119.7,26.9,158.6,74.7C755.2,108.4,661.4,51.2,554,49.6H184.2a14.1,14.1,0,0,0-14.1,14.1V809.2C192.1,752.3,229.6,671,290,559.7Z" transform="translate(-146.3 -49.6)"/><path class="cls-5" d="M575.1,498.1C422.8,643.9,267.3,951.7,244.6,964.7s-60.7,14.6-81-8.1c-21.5-24.2-55-63.2,126.4-396.9C507.7,159.4,536.2,119.1,649.6,119.1c59.6,0,119.7,26.9,158.6,74.7l6.3,10.5c-66.6-68.5-211.4-84.4-247.3-.3-37,86.1,62,182,105.2,174.4,55.1-9.7-9.7-136-9.7-136C746.8,400.9,727.4,352.3,575.1,498.1Z" transform="translate(-146.3 -49.6)"/><path class="cls-6" d="M307.8,577.5C525.5,177.2,554,136.9,667.4,136.9a208.4,208.4,0,0,1,136.1,51.3c-38.9-44.3-96.5-69.1-153.9-69.1-113.4,0-141.9,40.3-359.6,440.6C108.6,893.4,142.1,932.4,163.6,956.6a53.4,53.4,0,0,0,10.4,8.7C155,937.8,146.6,873.8,307.8,577.5Z" transform="translate(-146.3 -49.6)"/></svg>