<svg id="Слой_1" data-name="Слой 1" xmlns="http://www.w3.org/2000/svg" viewBox="0 0 290 290"><defs><style>.cls-1{fill:#fff;}.cls-2{fill:#8ed6fb;}.cls-3{fill:#1c78c0;}</style></defs><polygon class="cls-1" points="145 0.05 273 72.45 273 217.31 145 289.71 17 217.31 17 72.45 145 0.05"/><path class="cls-2" d="M250.15,212.29l-100.9,57.14V225l62.89-34.63Zm6.91-6.23V86.65L220.16,108v76.8Zm-217.6,6.23,100.9,57.09V224.94L77.47,190.36l-38,21.93Zm-6.91-6.23V86.65L69.46,108v76.8L32.55,206.06Zm4.3-127.13L140.36,20.38v43L74,99.84l-.53.29L36.85,78.93Zm215.86,0L149.25,20.38v43l66.27,36.52.53.29,36.66-21.25Z"/><path class="cls-3" d="M140.36,214.85l-62-34.15V113.12l62,35.79v65.94Zm8.89,0,62-34.1V113.12l-62,35.79ZM82.5,105.3l62.31-34.25,62.26,34.25-62.26,35.93L82.5,105.3Z"/></svg>