<svg xmlns="http://www.w3.org/2000/svg" viewBox="0 0 22.5 13.3">
    <path fill="#BDB8AD" d="M22.7,6.2c.2-.5,0-.9-.7-.9H19.5a1,1,0,0,0-1,.7,19.6,19.6,0,0,1-3.1,5c-.5.6-.8.8-1.1.8s-.4-.2-.4-.7V6.2c0-.6-.2-.9-.7-.9H9.4a.7.7,0,0,0-.7.6c0,.6.9.7,1,2.4v3.6c0,.8-.1.9-.5.9s-2.8-3-4-6.5c-.2-.7-.5-1-1.1-1H1.6c-.7,0-.8.4-.8.7s.8,3.9,3.9,8.2a9.6,9.6,0,0,0,7.5,4.5c1.5,0,1.7-.4,1.7-1V15.5c0-.7.2-.8.7-.8s.9.2,2.4,1.6,1.9,2.4,2.9,2.4h2.4c.7,0,1.1-.4.9-1.1a9.5,9.5,0,0,0-2.1-2.9L19.4,13a.9.9,0,0,1,0-1.1S22.4,7.7,22.7,6.2Z" transform="translate(-0.8 -5.3)"/>
</svg>