<svg id="Слой_1" data-name="Слой 1" xmlns="http://www.w3.org/2000/svg" viewBox="0 0 64 37.1"><defs><style>.cls-1{fill:#232323;}</style></defs><path class="cls-1" d="M64,49.6a4.2,4.2,0,0,1-5.1-1.9L49.8,35l-1.4-1.8L37.7,47.7c-1.2,1.8-2.5,2.5-4.8,1.9L46.6,31.2,33.8,14.5c2.2-.4,3.8-.2,5.1,1.8l9.5,12.8L58,16.3c1.2-1.7,2.5-2.4,4.8-1.7l-5,6.5L51,29.9a1.8,1.8,0,0,0,0,2.5.1.1,0,0,0,.1.1ZM0,30.8l1.1-5.5C4.2,14.4,16.7,9.8,25.4,16.6c5,4,6.3,9.6,6,15.9H3c-.5,11.3,7.7,18.2,18.1,14.7,3.7-1.2,5.8-4.1,6.9-7.7.5-1.8,1.5-2,3.1-1.5-.8,4.4-2.8,8.2-6.9,10.5C18.1,52,9.3,50.9,4.7,46,2,43.2.9,39.6.4,35.8.3,35.2.1,34.6,0,34V30.9Zm3-.7H28.8c-.2-8.2-5.3-14-12.3-14.1S3.3,21.6,3,30.1Z" transform="translate(0 -13.4)"/></svg>