<svg id="Слой_1" data-name="Слой 1" xmlns="http://www.w3.org/2000/svg" viewBox="0 0 16 24"><defs><style>.cls-1{fill:#19bcfe;}.cls-2{fill:#09cf83;}.cls-2,.cls-3,.cls-4,.cls-5{fill-rule:evenodd;}.cls-3{fill:#a259ff;}.cls-4{fill:#f24e1e;}.cls-5{fill:#ff7262;}</style></defs><circle class="cls-1" cx="12" cy="12" r="4"/><path class="cls-2" d="M8,24a4,4,0,0,0,4-4V16H8a4,4,0,0,0,0,8Z" transform="translate(-4 0)"/><path class="cls-3" d="M8,16h4V8H8a4,4,0,0,0,0,8Z" transform="translate(-4 0)"/><path class="cls-4" d="M8,8h4V0H8A4,4,0,0,0,8,8Z" transform="translate(-4 0)"/><path class="cls-5" d="M16,8H12V0h4a4,4,0,0,1,0,8Z" transform="translate(-4 0)"/></svg>