<svg width="42" height="42" viewBox="0 0 42 42" fill="none" xmlns="http://www.w3.org/2000/svg">
<path d="M42 0H0V42H42V0Z" fill="#F1DC50"/>
<path d="M21 19.25C21 27.5611 21 32.2278 21 33.25C21 34.7833 20.085 36.75 17.5 36.75C13.3256 36.75 13.125 33.25 13.125 33.25M36.3824 23.6531C35.3323 21.8844 33.9402 21 32.2062 21C29.4986 21 28 22.75 28 24.5C28 26.25 28.875 28 32.3897 28.875C34.6263 29.4318 36.75 30.625 36.75 33.25C36.75 35.875 34.4479 36.75 32.375 36.75C29.7258 36.75 27.9758 35.5833 27.125 33.25" stroke="#333333" stroke-width="4"/>
</svg>
