<svg id="Слой_1" data-name="Слой 1" xmlns="http://www.w3.org/2000/svg" viewBox="0 0 99.7 100"><defs><style>.cls-1{fill:#eaeaea}.cls-1,.cls-2,.cls-3,.cls-4,.cls-5{fill-rule:evenodd}.cls-2{fill:#00f2e6}.cls-3{fill:#00b9f1}.cls-4{fill:#d63aff}.cls-5{fill:#fb015b}</style></defs><circle cx="49.8" cy="50" r="24.3"/><g id="Page-1"><g id="jwt_logo" data-name="jwt logo"><g id="Group"><g id="Shape"><path class="cls-1" d="M57.8 27.2V.3h-15v26.9l7.5 10.3ZM42.8 73.3v27h15v-27L50.3 63Z" transform="translate(-.4 -.3)"/><path class="cls-2" d="m57.8 73.3 15.8 21.8 12.1-8.8-15.8-21.8-12.1-3.9ZM42.8 27.2 26.9 5.4l-12.1 8.8L30.6 36l12.2 3.9Z" transform="translate(-.4 -.3)"/><path class="cls-3" d="M30.6 36 5 27.7.4 41.9 26 50.3l12.1-4ZM62.4 54.2l7.5 10.3 25.6 8.3 4.6-14.2-25.6-8.3Z" transform="translate(-.4 -.3)"/><path class="cls-4" d="m74.5 50.3 25.6-8.4-4.6-14.2L69.9 36l-7.5 10.3ZM26 50.3.4 58.6 5 72.8l25.6-8.3 7.5-10.3Z" transform="translate(-.4 -.3)"/><path class="cls-5" d="M30.6 64.5 14.8 86.3l12.1 8.8 15.9-21.8V60.6ZM69.9 36l15.8-21.8-12.1-8.8-15.8 21.8v12.7Z" transform="translate(-.4 -.3)"/></g></g></g></g></svg>