<svg width="46" height="38" viewBox="0 0 46 38" fill="none" xmlns="http://www.w3.org/2000/svg">
<path d="M0 37.44V0H8.36V3.16H3.84V34.28H8.36V37.44H0Z" fill="#4B98F2"/>
<path d="M13.6803 29.92C12.9336 29.92 12.2936 29.6667 11.7603 29.16C11.227 28.6267 10.9603 27.96 10.9603 27.16C10.9603 26.36 11.227 25.7067 11.7603 25.2C12.2936 24.6933 12.9336 24.44 13.6803 24.44C14.4003 24.44 15.0136 24.6933 15.5203 25.2C16.0536 25.7067 16.3203 26.36 16.3203 27.16C16.3203 27.96 16.0536 28.6267 15.5203 29.16C15.0136 29.6667 14.4003 29.92 13.6803 29.92Z" fill="black"/>
<path d="M22.7428 29.92C21.9961 29.92 21.3561 29.6667 20.8228 29.16C20.2895 28.6267 20.0228 27.96 20.0228 27.16C20.0228 26.36 20.2895 25.7067 20.8228 25.2C21.3561 24.6933 21.9961 24.44 22.7428 24.44C23.4628 24.44 24.0761 24.6933 24.5828 25.2C25.1161 25.7067 25.3828 26.36 25.3828 27.16C25.3828 27.96 25.1161 28.6267 24.5828 29.16C24.0761 29.6667 23.4628 29.92 22.7428 29.92Z" fill="black"/>
<path d="M31.8053 29.92C31.0586 29.92 30.4186 29.6667 29.8853 29.16C29.352 28.6267 29.0853 27.96 29.0853 27.16C29.0853 26.36 29.352 25.7067 29.8853 25.2C30.4186 24.6933 31.0586 24.44 31.8053 24.44C32.5253 24.44 33.1386 24.6933 33.6453 25.2C34.1786 25.7067 34.4453 26.36 34.4453 27.16C34.4453 27.96 34.1786 28.6267 33.6453 29.16C33.1386 29.6667 32.5253 29.92 31.8053 29.92Z" fill="black"/>
<path d="M45.4278 37.44H37.0678V34.28H41.5878V3.16H37.0678V0H45.4278V37.44Z" fill="#4B98F2"/>
</svg>
