<svg width="38" height="31" viewBox="0 0 38 31" fill="none" xmlns="http://www.w3.org/2000/svg">
<path d="M0.828857 30.2081V0.256104H7.51686V2.7841H3.90086V27.6801H7.51686V30.2081H0.828857Z" fill="#4B98F2"/>
<path d="M11.7731 24.1921C11.1758 24.1921 10.6638 23.9894 10.2371 23.5841C9.81044 23.1574 9.59711 22.6241 9.59711 21.9841C9.59711 21.3441 9.81044 20.8214 10.2371 20.4161C10.6638 20.0108 11.1758 19.8081 11.7731 19.8081C12.3491 19.8081 12.8398 20.0108 13.2451 20.4161C13.6718 20.8214 13.8851 21.3441 13.8851 21.9841C13.8851 22.6241 13.6718 23.1574 13.2451 23.5841C12.8398 23.9894 12.3491 24.1921 11.7731 24.1921Z" fill="white"/>
<path d="M19.0231 24.1921C18.4258 24.1921 17.9138 23.9894 17.4871 23.5841C17.0604 23.1574 16.8471 22.6241 16.8471 21.9841C16.8471 21.3441 17.0604 20.8214 17.4871 20.4161C17.9138 20.0108 18.4258 19.8081 19.0231 19.8081C19.5991 19.8081 20.0898 20.0108 20.4951 20.4161C20.9218 20.8214 21.1351 21.3441 21.1351 21.9841C21.1351 22.6241 20.9218 23.1574 20.4951 23.5841C20.0898 23.9894 19.5991 24.1921 19.0231 24.1921Z" fill="white"/>
<path d="M26.2731 24.1921C25.6758 24.1921 25.1638 23.9894 24.7371 23.5841C24.3104 23.1574 24.0971 22.6241 24.0971 21.9841C24.0971 21.3441 24.3104 20.8214 24.7371 20.4161C25.1638 20.0108 25.6758 19.8081 26.2731 19.8081C26.8491 19.8081 27.3398 20.0108 27.7451 20.4161C28.1718 20.8214 28.3851 21.3441 28.3851 21.9841C28.3851 22.6241 28.1718 23.1574 27.7451 23.5841C27.3398 23.9894 26.8491 24.1921 26.2731 24.1921Z" fill="white"/>
<path d="M37.1711 30.2081H30.4831V27.6801H34.0991V2.7841H30.4831V0.256104H37.1711V30.2081Z" fill="#4B98F2"/>
</svg>
