<svg width="37" height="30" viewBox="0 0 37 30" fill="none" xmlns="http://www.w3.org/2000/svg">
<path d="M0 29.952V0H6.688V2.528H3.072V27.424H6.688V29.952H0Z" fill="white"/>
<path d="M10.9443 23.936C10.3469 23.936 9.83492 23.7333 9.40825 23.328C8.98158 22.9013 8.76825 22.368 8.76825 21.728C8.76825 21.088 8.98158 20.5653 9.40825 20.16C9.83492 19.7547 10.3469 19.552 10.9443 19.552C11.5203 19.552 12.0109 19.7547 12.4163 20.16C12.8429 20.5653 13.0562 21.088 13.0562 21.728C13.0562 22.368 12.8429 22.9013 12.4163 23.328C12.0109 23.7333 11.5203 23.936 10.9443 23.936Z" fill="white"/>
<path d="M18.1943 23.936C17.5969 23.936 17.0849 23.7333 16.6582 23.328C16.2316 22.9013 16.0182 22.368 16.0182 21.728C16.0182 21.088 16.2316 20.5653 16.6582 20.16C17.0849 19.7547 17.5969 19.552 18.1943 19.552C18.7703 19.552 19.2609 19.7547 19.6663 20.16C20.0929 20.5653 20.3062 21.088 20.3062 21.728C20.3062 22.368 20.0929 22.9013 19.6663 23.328C19.2609 23.7333 18.7703 23.936 18.1943 23.936Z" fill="white"/>
<path d="M25.4443 23.936C24.8469 23.936 24.3349 23.7333 23.9082 23.328C23.4816 22.9013 23.2682 22.368 23.2682 21.728C23.2682 21.088 23.4816 20.5653 23.9082 20.16C24.3349 19.7547 24.8469 19.552 25.4443 19.552C26.0203 19.552 26.5109 19.7547 26.9163 20.16C27.3429 20.5653 27.5562 21.088 27.5562 21.728C27.5562 22.368 27.3429 22.9013 26.9163 23.328C26.5109 23.7333 26.0203 23.936 25.4443 23.936Z" fill="white"/>
<path d="M36.3423 29.952H29.6542V27.424H33.2702V2.528H29.6542V0H36.3423V29.952Z" fill="white"/>
</svg>
