<svg width="131" height="32" viewBox="0 0 131 32" fill="none" xmlns="http://www.w3.org/2000/svg">
<path d="M51.796 21.58L51.884 17.4L57.406 12.164H61.498L56.196 17.554L54.414 19.006L51.796 21.58ZM48.958 24V7.676H52.39V24H48.958ZM57.78 24L53.776 19.028L55.932 16.366L61.938 24H57.78ZM68.8613 24.176C67.512 24.176 66.324 23.912 65.2973 23.384C64.2853 22.856 63.5007 22.1373 62.9433 21.228C62.386 20.304 62.1073 19.2553 62.1073 18.082C62.1073 16.894 62.3787 15.8453 62.9213 14.936C63.4787 14.012 64.234 13.2933 65.1873 12.78C66.1407 12.252 67.2187 11.988 68.4213 11.988C69.58 11.988 70.6213 12.2373 71.5453 12.736C72.484 13.22 73.2247 13.924 73.7673 14.848C74.31 15.7573 74.5813 16.85 74.5813 18.126C74.5813 18.258 74.574 18.412 74.5593 18.588C74.5447 18.7493 74.53 18.9033 74.5153 19.05H64.9013V17.048H72.7113L71.3913 17.642C71.3913 17.026 71.2667 16.4907 71.0173 16.036C70.768 15.5813 70.4233 15.2293 69.9833 14.98C69.5433 14.716 69.03 14.584 68.4433 14.584C67.8567 14.584 67.336 14.716 66.8813 14.98C66.4413 15.2293 66.0967 15.5887 65.8473 16.058C65.598 16.5127 65.4733 17.0553 65.4733 17.686V18.214C65.4733 18.8593 65.6127 19.4313 65.8913 19.93C66.1847 20.414 66.588 20.788 67.1013 21.052C67.6293 21.3013 68.2453 21.426 68.9493 21.426C69.58 21.426 70.13 21.3307 70.5993 21.14C71.0833 20.9493 71.5233 20.6633 71.9193 20.282L73.7453 22.262C73.2027 22.878 72.5207 23.3547 71.6993 23.692C70.878 24.0147 69.932 24.176 68.8613 24.176ZM75.9862 28.444C75.4582 28.444 74.9522 28.3853 74.4682 28.268C73.9842 28.1653 73.5736 28.004 73.2362 27.784L74.1602 25.298C74.5562 25.5767 75.0402 25.716 75.6122 25.716C76.0376 25.716 76.3749 25.5693 76.6242 25.276C76.8882 24.9973 77.0202 24.572 77.0202 24V12.164H80.4522V23.978C80.4522 25.342 80.0636 26.4273 79.2862 27.234C78.5089 28.0407 77.4089 28.444 75.9862 28.444ZM78.7362 10.514C78.1056 10.514 77.5922 10.3307 77.1962 9.964C76.8002 9.59733 76.6022 9.14267 76.6022 8.6C76.6022 8.05733 76.8002 7.60267 77.1962 7.236C77.5922 6.86933 78.1056 6.686 78.7362 6.686C79.3669 6.686 79.8802 6.862 80.2762 7.214C80.6722 7.55133 80.8702 7.99133 80.8702 8.534C80.8702 9.106 80.6722 9.58267 80.2762 9.964C79.8949 10.3307 79.3816 10.514 78.7362 10.514ZM89.4863 24.176C88.137 24.176 86.949 23.912 85.9223 23.384C84.9103 22.856 84.1257 22.1373 83.5683 21.228C83.011 20.304 82.7323 19.2553 82.7323 18.082C82.7323 16.894 83.0037 15.8453 83.5463 14.936C84.1037 14.012 84.859 13.2933 85.8123 12.78C86.7657 12.252 87.8437 11.988 89.0463 11.988C90.205 11.988 91.2463 12.2373 92.1703 12.736C93.109 13.22 93.8497 13.924 94.3923 14.848C94.935 15.7573 95.2063 16.85 95.2063 18.126C95.2063 18.258 95.199 18.412 95.1843 18.588C95.1697 18.7493 95.155 18.9033 95.1403 19.05H85.5263V17.048H93.3363L92.0163 17.642C92.0163 17.026 91.8917 16.4907 91.6423 16.036C91.393 15.5813 91.0483 15.2293 90.6083 14.98C90.1683 14.716 89.655 14.584 89.0683 14.584C88.4817 14.584 87.961 14.716 87.5063 14.98C87.0663 15.2293 86.7217 15.5887 86.4723 16.058C86.223 16.5127 86.0983 17.0553 86.0983 17.686V18.214C86.0983 18.8593 86.2377 19.4313 86.5163 19.93C86.8097 20.414 87.213 20.788 87.7263 21.052C88.2543 21.3013 88.8703 21.426 89.5743 21.426C90.205 21.426 90.755 21.3307 91.2243 21.14C91.7083 20.9493 92.1483 20.6633 92.5443 20.282L94.3703 22.262C93.8277 22.878 93.1457 23.3547 92.3243 23.692C91.503 24.0147 90.557 24.176 89.4863 24.176ZM97.4912 24V12.164H100.769V15.508L100.307 14.54C100.659 13.704 101.224 13.0733 102.001 12.648C102.779 12.208 103.725 11.988 104.839 11.988V15.156C104.693 15.1413 104.561 15.134 104.443 15.134C104.326 15.1193 104.201 15.112 104.069 15.112C103.131 15.112 102.368 15.3833 101.781 15.926C101.209 16.454 100.923 17.2827 100.923 18.412V24H97.4912ZM112.426 24.176C111.165 24.176 110.043 23.912 109.06 23.384C108.092 22.856 107.322 22.1373 106.75 21.228C106.193 20.304 105.914 19.2553 105.914 18.082C105.914 16.894 106.193 15.8453 106.75 14.936C107.322 14.012 108.092 13.2933 109.06 12.78C110.043 12.252 111.165 11.988 112.426 11.988C113.673 11.988 114.787 12.252 115.77 12.78C116.753 13.2933 117.523 14.0047 118.08 14.914C118.637 15.8233 118.916 16.8793 118.916 18.082C118.916 19.2553 118.637 20.304 118.08 21.228C117.523 22.1373 116.753 22.856 115.77 23.384C114.787 23.912 113.673 24.176 112.426 24.176ZM112.426 21.36C112.998 21.36 113.511 21.228 113.966 20.964C114.421 20.7 114.78 20.326 115.044 19.842C115.308 19.3433 115.44 18.7567 115.44 18.082C115.44 17.3927 115.308 16.806 115.044 16.322C114.78 15.838 114.421 15.464 113.966 15.2C113.511 14.936 112.998 14.804 112.426 14.804C111.854 14.804 111.341 14.936 110.886 15.2C110.431 15.464 110.065 15.838 109.786 16.322C109.522 16.806 109.39 17.3927 109.39 18.082C109.39 18.7567 109.522 19.3433 109.786 19.842C110.065 20.326 110.431 20.7 110.886 20.964C111.341 21.228 111.854 21.36 112.426 21.36Z" fill="black"/>
<path d="M11.8037 27.85V4.45H17.0287V6.425H14.2037V25.875H17.0287V27.85H11.8037ZM40.1961 27.85H34.9711V25.875H37.7961V6.425H34.9711V4.45H40.1961V27.85Z" fill="#4B98F2"/>
<path d="M20.3539 23.15C19.8872 23.15 19.4872 22.9917 19.1539 22.675C18.8206 22.3417 18.6539 21.925 18.6539 21.425C18.6539 20.925 18.8206 20.5167 19.1539 20.2C19.4872 19.8833 19.8872 19.725 20.3539 19.725C20.8039 19.725 21.1872 19.8833 21.5039 20.2C21.8372 20.5167 22.0039 20.925 22.0039 21.425C22.0039 21.925 21.8372 22.3417 21.5039 22.675C21.1872 22.9917 20.8039 23.15 20.3539 23.15ZM26.018 23.15C25.5513 23.15 25.1513 22.9917 24.818 22.675C24.4846 22.3417 24.318 21.925 24.318 21.425C24.318 20.925 24.4846 20.5167 24.818 20.2C25.1513 19.8833 25.5513 19.725 26.018 19.725C26.468 19.725 26.8513 19.8833 27.168 20.2C27.5013 20.5167 27.668 20.925 27.668 21.425C27.668 21.925 27.5013 22.3417 27.168 22.675C26.8513 22.9917 26.468 23.15 26.018 23.15ZM31.682 23.15C31.2154 23.15 30.8154 22.9917 30.482 22.675C30.1487 22.3417 29.982 21.925 29.982 21.425C29.982 20.925 30.1487 20.5167 30.482 20.2C30.8154 19.8833 31.2154 19.725 31.682 19.725C32.132 19.725 32.5154 19.8833 32.832 20.2C33.1654 20.5167 33.332 20.925 33.332 21.425C33.332 21.925 33.1654 22.3417 32.832 22.675C32.5154 22.9917 32.132 23.15 31.682 23.15Z" fill="black"/>
</svg>
