<svg width="303" height="55" viewBox="0 0 303 55" fill="none" xmlns="http://www.w3.org/2000/svg">
<path d="M17.0607 1.61108H46.4328C51.599 1.61108 55.7586 5.76359 55.7586 10.922V26.1464C55.7586 31.3048 51.599 35.4573 46.4328 35.4573H17.0607C11.8945 35.4573 7.73486 31.3048 7.73486 26.1464V10.922C7.73486 5.76359 11.8945 1.61108 17.0607 1.61108Z" fill="#DCAF86"/>
<path d="M2.08496 53.5915H11.9722V23.9761H2.08496V53.5915ZM51.5212 53.5915H61.4084V23.9761H51.5212V53.5915Z" fill="#DCAF86"/>
<path d="M53.9931 49.3611V39.4893H9.50049V49.3611H53.9931Z" fill="#B79371"/>
<path d="M10.5718 38.5609C10.5718 38.5609 10.5718 34.9493 10.5718 33.1433C10.5721 31.5855 11.8365 30.3228 13.3967 30.3228H50.1207C51.6809 30.3228 52.9459 31.5855 52.9457 33.1433C52.9445 35.0051 52.947 38.7289 52.947 38.7289L10.5718 38.5609Z" fill="#DCAF86"/>
<path d="M51.5243 22.564C51.1497 22.564 50.7905 22.7127 50.5256 22.9771C50.2607 23.2416 50.1119 23.6002 50.1118 23.9742V29.6153V31.0255H52.9367V29.6153V25.3845H59.9991V52.1794H52.9367V49.3589V47.9486H50.1118V49.3589V53.5897C50.1119 53.9637 50.2607 54.3223 50.5256 54.5868C50.7905 54.8512 51.1497 54.9999 51.5243 54.9999H61.4115C61.7861 54.9999 62.1453 54.8512 62.4102 54.5868C62.6751 54.3223 62.8239 53.9637 62.824 53.5897V23.9742C62.8239 23.6002 62.6751 23.2416 62.4102 22.9771C62.1453 22.7127 61.7861 22.564 61.4115 22.564H51.5243Z" fill="#484848"/>
<path d="M13.3872 28.9103C11.0637 28.9103 9.15006 30.8215 9.14978 33.1411V35.9616H11.9747V33.1411C11.9747 32.3451 12.5903 31.7308 13.3872 31.7308H50.1112C50.9081 31.7308 51.5237 32.3457 51.5237 33.1411V35.9616H54.3486V33.1411C54.3489 30.8209 52.4347 28.9103 50.1112 28.9103H13.3872ZM9.5029 38.077C9.1283 38.077 8.76912 38.2257 8.50424 38.4902C8.23936 38.7546 8.09047 39.1133 8.09043 39.4873V49.3591C8.09047 49.7331 8.23936 50.0917 8.50424 50.3562C8.76912 50.6206 9.1283 50.7693 9.5029 50.7693H31.7492H33.1616V47.9488H31.7492H10.9154V40.8975H52.583V47.9488H42.8723H41.4599V50.7693H42.8723H53.9955C54.3701 50.7693 54.7293 50.6206 54.9941 50.3562C55.259 50.0917 55.4079 49.7331 55.4079 49.3591V39.4873C55.4079 39.1133 55.259 38.7546 54.9941 38.4902C54.7293 38.2257 54.3701 38.077 53.9955 38.077H9.5029ZM16.2121 0C10.767 0 6.31934 4.43527 6.31934 9.87182V23.2693H9.14978V9.87182C9.14978 5.96201 12.2962 2.82637 16.2121 2.82637H47.2863C51.2019 2.82637 54.3434 5.96201 54.3431 9.87182V19.7436H57.1735V9.87182C57.1738 4.43527 52.731 0 47.2863 0H16.2121Z" fill="#484848"/>
<path fill-rule="evenodd" clip-rule="evenodd" d="M30.3196 12.0042C30.0394 12.0053 29.7654 12.0898 29.5334 12.2465C29.3013 12.4033 29.1214 12.6253 29.0161 12.8845C28.9108 13.1438 28.8858 13.4284 28.943 13.7023C29.0001 13.9761 29.1373 14.2269 29.3375 14.4225L32.1293 17.2155C32.2595 17.3506 32.4148 17.4584 32.5873 17.5326C32.7597 17.6068 32.9457 17.6458 33.1335 17.6476C33.3212 17.6494 33.5073 17.6138 33.6811 17.5429C33.8549 17.472 34.0132 17.3673 34.1459 17.2348C34.2787 17.1022 34.3839 16.9445 34.4549 16.771C34.526 16.5975 34.5615 16.4117 34.5597 16.2243C34.558 16.0368 34.5182 15.8514 34.4439 15.6792C34.3696 15.5071 34.2619 15.3513 34.1266 15.2213L31.3348 12.4287C31.2026 12.2937 31.0444 12.1865 30.87 12.1136C30.6956 12.0408 30.5086 12.0034 30.3196 12.0042V12.0042Z" fill="#484848"/>
<path fill-rule="evenodd" clip-rule="evenodd" d="M33.1013 12.0039C32.7347 12.0141 32.3866 12.1665 32.1303 12.4285L29.3385 15.2211C29.2032 15.3511 29.0955 15.5069 29.0212 15.679C28.9469 15.8512 28.9071 16.0366 28.9053 16.2241C28.9036 16.4115 28.9391 16.5973 29.0102 16.7708C29.0812 16.9443 29.1864 17.102 29.3191 17.2346C29.4519 17.3671 29.6102 17.4718 29.784 17.5427C29.9578 17.6136 30.1438 17.6492 30.3316 17.6474C30.5193 17.6456 30.7054 17.6066 30.8778 17.5324C31.0502 17.4582 31.2056 17.3504 31.3358 17.2153L34.1276 14.4223C34.3307 14.2241 34.469 13.9694 34.5248 13.6914C34.5807 13.4133 34.5515 13.1248 34.4407 12.8637C34.3299 12.6025 34.1431 12.3807 33.9041 12.2274C33.6652 12.0741 33.3853 11.9962 33.1013 12.0039ZM43.0162 12.0039C42.736 12.0052 42.4619 12.0896 42.2299 12.2463C41.9979 12.4031 41.8179 12.6255 41.7127 12.8847C41.6074 13.1439 41.5824 13.4286 41.6396 13.7024C41.6967 13.9762 41.8339 14.2267 42.0341 14.4223L44.8314 17.2153C44.9616 17.3504 45.1169 17.4582 45.2894 17.5324C45.4618 17.6066 45.6478 17.6456 45.8356 17.6474C46.0233 17.6492 46.2094 17.6136 46.3832 17.5427C46.557 17.4718 46.7153 17.3671 46.848 17.2346C46.9808 17.102 47.086 16.9443 47.157 16.7708C47.228 16.5973 47.2636 16.4115 47.2618 16.2241C47.2601 16.0366 47.2203 15.8512 47.146 15.679C47.0717 15.5069 46.964 15.3511 46.8287 15.2211L44.0314 12.4285C43.8992 12.2935 43.7409 12.1863 43.5665 12.1134C43.3921 12.0406 43.2052 12.0032 43.0162 12.0039Z" fill="#484848"/>
<path fill-rule="evenodd" clip-rule="evenodd" d="M45.8017 12.0039C45.4351 12.0141 45.0869 12.1665 44.8306 12.4285L42.0333 15.2211C41.8973 15.3509 41.7882 15.5067 41.7133 15.679C41.6384 15.8514 41.5995 16.0369 41.5974 16.2247C41.5953 16.4126 41.6298 16.5989 41.7009 16.7729C41.7719 16.9468 41.8782 17.1052 42.0112 17.238C42.1443 17.3709 42.3018 17.4756 42.4761 17.5465C42.6503 17.6174 42.8369 17.6529 43.0251 17.6508C43.2132 17.6487 43.3987 17.6093 43.5713 17.5345C43.7439 17.4597 43.9006 17.3511 44.0306 17.2153L46.8279 14.4223C47.031 14.2241 47.1694 13.9694 47.2252 13.6914C47.2811 13.4133 47.2519 13.1248 47.1411 12.8637C47.0302 12.6025 46.8434 12.3807 46.6045 12.2274C46.3656 12.0741 46.0856 11.9962 45.8017 12.0039V12.0039ZM17.5911 12.0039C17.3109 12.0052 17.0368 12.0896 16.8048 12.2463C16.5728 12.4031 16.3928 12.6255 16.2876 12.8847C16.1823 13.1439 16.1573 13.4286 16.2145 13.7024C16.2716 13.9762 16.4088 14.2267 16.609 14.4223L19.4063 17.2153C19.5365 17.3504 19.6918 17.4582 19.8643 17.5324C20.0367 17.6066 20.2227 17.6456 20.4105 17.6474C20.5982 17.6492 20.7843 17.6136 20.9581 17.5427C21.1319 17.4718 21.2902 17.3671 21.4229 17.2346C21.5557 17.102 21.6609 16.9443 21.7319 16.7708C21.8029 16.5973 21.8385 16.4115 21.8367 16.2241C21.835 16.0366 21.7952 15.8512 21.7209 15.679C21.6466 15.5069 21.5389 15.3511 21.4036 15.2211L18.6063 12.4285C18.4741 12.2935 18.3158 12.1863 18.1414 12.1134C17.967 12.0406 17.7801 12.0032 17.5911 12.0039Z" fill="#484848"/>
<path fill-rule="evenodd" clip-rule="evenodd" d="M20.3782 12.0039C20.0116 12.0141 19.6634 12.1665 19.4071 12.4285L16.6098 15.2211C16.4738 15.3509 16.3647 15.5067 16.2898 15.679C16.2149 15.8514 16.176 16.0369 16.1739 16.2247C16.1718 16.4126 16.2063 16.5989 16.2774 16.7729C16.3484 16.9468 16.4547 17.1052 16.5877 17.238C16.7208 17.3709 16.8783 17.4756 17.0526 17.5465C17.2268 17.6174 17.4134 17.6529 17.6016 17.6508C17.7897 17.6487 17.9752 17.6093 18.1478 17.5345C18.3204 17.4597 18.4771 17.3511 18.6071 17.2153L21.4044 14.4223C21.6075 14.2241 21.7459 13.9694 21.8017 13.6914C21.8576 13.4133 21.8284 13.1248 21.7176 12.8637C21.6067 12.6025 21.4199 12.3807 21.181 12.2274C20.9421 12.0741 20.6621 11.9962 20.3782 12.0039V12.0039Z" fill="#484848"/>
<path d="M2.08776 22.564C1.71316 22.564 1.35398 22.7127 1.0891 22.9771C0.82422 23.2416 0.67533 23.6002 0.675293 23.9742V53.5897C0.67533 53.9637 0.82422 54.3223 1.0891 54.5868C1.35398 54.8512 1.71316 54.9999 2.08776 54.9999H11.975C12.3496 54.9999 12.7088 54.8512 12.9737 54.5868C13.2385 54.3223 13.3874 53.9637 13.3875 53.5897V49.3589V47.9486H10.5625V49.3589V52.1794H3.50022V25.3845H10.5625V29.6153V31.0255H13.3875V29.6153V23.9742C13.3874 23.6002 13.2385 23.2416 12.9737 22.9771C12.7088 22.7127 12.3496 22.564 11.975 22.564H2.08776ZM35.9813 47.9486V50.7692H38.8063V47.9486H35.9813Z" fill="#484848"/>
<path d="M78.153 42.5584H74.2839C73.8394 42.5584 73.6566 42.3279 73.8105 41.888L82.0005 18.5161H76.8068C76.4132 18.5161 76.2143 18.3317 76.2143 17.9637V14.9687C76.2143 14.5748 76.4123 14.3776 76.8068 14.3776C83.9499 14.3776 91.0926 14.3776 98.2358 14.3776C98.6313 14.3776 98.8278 14.5758 98.8278 14.9687V17.9637C98.8278 18.3307 98.6303 18.5161 98.2358 18.5161H93.0504L101.24 41.888C101.372 42.3353 101.214 42.5584 100.767 42.5584H96.8975C96.5294 42.5584 96.3055 42.4013 96.2261 42.0857L94.2923 36.1344H80.7586L78.8244 42.0857C78.7229 42.4003 78.4936 42.5584 78.153 42.5584ZM104.398 23.094C106.818 22.1482 109.475 21.6755 112.37 21.6755C115.105 21.6755 117.302 22.3977 118.959 23.8427C120.617 25.2876 121.446 27.441 121.446 30.3043V34.6386C121.446 37.1868 120.63 39.2223 118.999 40.746C117.368 42.2692 115.277 43.031 112.725 43.031C111.278 43.031 109.883 42.7424 108.541 42.1645V49.4536C108.541 49.8475 108.344 50.0447 107.949 50.0447H104.556C104.161 50.0447 103.964 49.8475 103.964 49.4536V23.7247C103.964 23.4091 104.109 23.1992 104.398 23.094ZM112.33 39.0124C115.303 39.0124 116.789 37.567 116.789 34.6782V30.2657C116.789 28.6363 116.408 27.4679 115.645 26.7584C114.882 26.0494 113.751 25.6942 112.251 25.6942C110.672 25.6942 109.436 25.8781 108.541 26.2461V37.909C109.62 38.6445 110.882 39.0124 112.33 39.0124ZM142.637 42.5584H138.651C138.309 42.5584 138.073 42.44 137.941 42.2041L131.785 34.1263L130.167 35.8599V41.9673C130.167 42.3612 129.969 42.5584 129.574 42.5584H126.299C125.905 42.5584 125.708 42.3612 125.708 41.9673V22.7398C125.708 22.3459 125.905 22.1482 126.299 22.1482H129.574C129.969 22.1482 130.167 22.3459 130.167 22.7398V30.3435L137.231 22.4633C137.388 22.2534 137.625 22.1482 137.941 22.1482H141.927C142.189 22.1482 142.354 22.2138 142.42 22.3459C142.486 22.477 142.44 22.6473 142.282 22.8572L134.824 30.9351L143.032 41.8494C143.321 42.322 143.189 42.5584 142.637 42.5584ZM162.092 35.0721C162.092 37.5152 161.277 39.4523 159.646 40.8835C158.014 42.3157 155.83 43.031 153.095 43.031C150.359 43.031 148.175 42.3157 146.544 40.8835C144.913 39.4523 144.097 37.5152 144.097 35.0721V29.7925C144.097 27.3235 144.913 25.3531 146.544 23.8818C148.175 22.4114 150.359 21.6755 153.095 21.6755C155.83 21.6755 158.014 22.4114 159.646 23.8818C161.277 25.3531 162.092 27.3235 162.092 29.7925V35.0721ZM148.714 35.0721C148.714 37.6463 150.174 38.9336 153.095 38.9336C154.516 38.9336 155.601 38.6053 156.35 37.9482C157.1 37.2915 157.475 36.3325 157.475 35.0721V29.7925C157.475 28.5052 157.094 27.5134 156.331 26.8171C155.568 26.1218 154.489 25.7734 153.095 25.7734C151.674 25.7734 150.589 26.115 149.839 26.798C149.089 27.4806 148.714 28.4793 148.714 29.7925V35.0721ZM171.286 42.5584H167.695C167.327 42.5584 167.142 42.3612 167.142 41.9673V14.977C167.142 14.5831 167.327 14.3864 167.695 14.3864H171.996C172.312 14.3864 172.522 14.5313 172.628 14.82L177.442 23.7644C178.442 25.6286 179.56 27.941 180.796 30.6987H180.954C182.191 27.941 183.309 25.6286 184.308 23.7644L189.083 14.82C189.241 14.5313 189.465 14.3864 189.754 14.3864H194.016C194.411 14.3864 194.608 14.5831 194.608 14.977V41.9673C194.608 42.3612 194.411 42.5584 194.016 42.5584H190.425C190.057 42.5584 189.872 42.3612 189.872 41.9673V34.0475C189.872 30.9483 189.978 26.824 190.188 21.6755L190.07 21.6359C189.28 23.3436 188.097 25.7734 186.518 28.925L183.046 35.6632C182.914 35.9523 182.691 36.0967 182.374 36.0967H179.376C179.06 36.0967 178.837 35.9523 178.705 35.6632L175.232 28.925C173.654 25.7734 172.47 23.3436 171.68 21.6359L171.563 21.6755C171.773 26.824 171.878 30.9483 171.878 34.0475V41.9673C171.878 42.3612 171.68 42.5584 171.286 42.5584ZM216.905 29.7534V33.7324C216.905 34.1003 216.707 34.2843 216.312 34.2843H204.316V35.3867C204.316 36.5693 204.691 37.4687 205.441 38.0862C206.191 38.7037 207.209 39.0124 208.499 39.0124C210.419 39.0124 212.274 38.4076 214.064 37.2C214.379 36.9892 214.642 37.0288 214.853 37.3175L216.471 39.4851C216.734 39.7743 216.695 40.0497 216.352 40.3125C214.064 42.1249 211.393 43.031 208.341 43.031C205.921 43.031 203.876 42.3675 202.205 41.0415C200.534 39.7146 199.699 37.8175 199.699 35.348V29.7534C199.699 27.0471 200.541 25.0248 202.225 23.6851C203.908 22.3459 205.96 21.6755 208.381 21.6755C210.775 21.6755 212.794 22.3459 214.438 23.6851C216.083 25.0248 216.905 27.0471 216.905 29.7534ZM212.446 29.7138C212.446 28.3471 212.064 27.3363 211.301 26.6796C210.538 26.0225 209.565 25.6942 208.381 25.6942C205.671 25.6942 204.316 27.0339 204.316 29.7138V30.7374H212.446V29.7138ZM225.428 24.1186C226.797 23.462 228.322 23.1337 230.006 23.1337C232.506 23.1337 234.531 23.8363 236.083 25.2416C237.635 26.6468 238.411 28.6363 238.411 31.2105V34.7173C238.411 37.4755 237.563 39.5506 235.866 40.9427C234.169 42.3348 232.058 43.031 229.532 43.031C227.086 43.031 225.027 42.3284 223.357 40.9231C221.686 39.5179 220.85 37.4359 220.85 34.6782V22.7789C220.85 20.3623 221.646 18.4579 223.238 17.0658C224.83 15.6733 226.717 14.7671 228.901 14.3473C232.032 13.7954 234.018 13.309 234.86 12.8892C235.228 12.7311 235.491 12.7977 235.649 13.0864L237.109 15.5681C237.268 15.9361 237.201 16.1988 236.912 16.3569C235.991 16.8819 233.86 17.5253 230.519 18.2867C229.782 18.4706 229.164 18.6546 228.664 18.8386C228.165 19.0226 227.638 19.2853 227.086 19.6264C226.533 19.9684 226.119 20.4151 225.843 20.9665C225.566 21.518 225.428 22.1746 225.428 22.9365V24.1186ZM229.493 38.9336C230.729 38.9336 231.748 38.5916 232.551 37.909C233.353 37.226 233.755 36.1755 233.755 34.757V31.2893C233.755 28.4523 232.361 27.0339 229.572 27.0339C228.02 27.0339 226.639 27.3495 225.428 27.9797V34.7173C225.428 36.1622 225.81 37.226 226.573 37.909C227.336 38.5916 228.309 38.9336 229.493 38.9336ZM259.247 29.7534V33.7324C259.247 34.1003 259.05 34.2843 258.655 34.2843H246.659V35.3867C246.659 36.5693 247.034 37.4687 247.783 38.0862C248.534 38.7037 249.553 39.0124 250.842 39.0124C252.762 39.0124 254.617 38.4076 256.406 37.2C256.722 36.9892 256.985 37.0288 257.195 37.3175L258.813 39.4851C259.077 39.7743 259.037 40.0497 258.695 40.3125C256.406 42.1249 253.736 43.031 250.684 43.031C248.264 43.031 246.218 42.3675 244.547 41.0415C242.877 39.7146 242.042 37.8175 242.042 35.348V29.7534C242.042 27.0471 242.884 25.0248 244.568 23.6851C246.251 22.3459 248.303 21.6755 250.723 21.6755C253.117 21.6755 255.137 22.3459 256.781 23.6851C258.426 25.0248 259.247 27.0471 259.247 29.7534ZM254.788 29.7138C254.788 28.3471 254.407 27.3363 253.644 26.6796C252.881 26.0225 251.908 25.6942 250.723 25.6942C248.014 25.6942 246.659 27.0339 246.659 29.7138V30.7374H254.788V29.7138ZM269.152 35.8599C268.652 38.3558 267.89 40.1085 266.864 41.1203C265.837 42.1317 264.206 42.6768 261.97 42.7556C261.602 42.7556 261.418 42.5584 261.418 42.1645V39.2879C261.418 38.9464 261.602 38.7365 261.97 38.6572C262.733 38.6053 263.331 38.2902 263.765 37.7119C264.2 37.134 264.561 36.0967 264.85 34.5989C265.298 31.9988 265.627 28.0325 265.837 22.7001C265.89 22.3322 266.087 22.1482 266.429 22.1482H279.846C280.241 22.1482 280.439 22.3322 280.439 22.7001V41.9673C280.439 42.3612 280.241 42.5584 279.846 42.5584H276.453C276.058 42.5584 275.861 42.3612 275.861 41.9673V26.1673H270.099C269.968 29.9237 269.652 33.1545 269.152 35.8599ZM294.171 42.5584H286.002C285.608 42.5584 285.411 42.3612 285.411 41.9673V22.7001C285.411 22.3322 285.608 22.1482 286.002 22.1482H289.396C289.791 22.1482 289.988 22.3322 289.988 22.7001V28.7679H294.171C296.591 28.7679 298.545 29.3854 300.032 30.6199C301.518 31.8544 302.261 33.5621 302.261 35.7419C302.261 38.0793 301.544 39.8002 300.11 40.9036C298.677 42.0064 296.697 42.5584 294.171 42.5584ZM289.988 32.5111V38.7756H293.381C296.223 38.7756 297.644 37.7383 297.644 35.6632C297.67 34.5867 297.328 33.7911 296.618 33.2798C295.908 32.7675 294.829 32.5111 293.381 32.5111H289.988ZM86.4356 18.5161L82.1004 31.8373H92.95L88.6159 18.5161H86.4356Z" fill="white"/>
</svg>
